<mxfile host="app.diagrams.net" agent="Mozilla/5.0 (X11; Linux x86_64) AppleWebKit/537.36 (KHTML, like Gecko) Chrome/131.0.0.0 Safari/537.36 Edg/131.0.0.0" version="24.8.6">
  <diagram id="UqtiB_08HVFXYnvLfDx0" name="Page-1">
    <mxGraphModel dx="1426" dy="1014" grid="1" gridSize="10" guides="1" tooltips="1" connect="1" arrows="1" fold="1" page="1" pageScale="1" pageWidth="850" pageHeight="1100" math="0" shadow="0">
      <root>
        <mxCell id="0" />
        <mxCell id="1" parent="0" />
        <mxCell id="TMhiChGDHzvXsEVeWyzY-2" value="&lt;span style=&quot;&quot;&gt;Mã nguồn&lt;/span&gt;" style="text;strokeColor=none;align=center;fillColor=none;html=1;verticalAlign=middle;whiteSpace=wrap;rounded=0;fontStyle=0" parent="1" vertex="1">
          <mxGeometry x="150" y="240" width="60" height="30" as="geometry" />
        </mxCell>
        <mxCell id="TMhiChGDHzvXsEVeWyzY-9" value="ItemFn" style="rounded=1;whiteSpace=wrap;html=1;" parent="1" vertex="1">
          <mxGeometry x="520" y="160" width="80" height="40" as="geometry" />
        </mxCell>
        <mxCell id="TMhiChGDHzvXsEVeWyzY-10" value="Ident" style="rounded=1;whiteSpace=wrap;html=1;" parent="1" vertex="1">
          <mxGeometry x="280" y="280" width="80" height="40" as="geometry" />
        </mxCell>
        <mxCell id="TMhiChGDHzvXsEVeWyzY-14" value="Vec&amp;lt;FnArg&amp;gt;" style="rounded=1;whiteSpace=wrap;html=1;" parent="1" vertex="1">
          <mxGeometry x="400" y="280" width="80" height="40" as="geometry" />
        </mxCell>
        <mxCell id="TMhiChGDHzvXsEVeWyzY-18" value="ReturnType" style="rounded=1;whiteSpace=wrap;html=1;" parent="1" vertex="1">
          <mxGeometry x="760" y="280" width="80" height="40" as="geometry" />
        </mxCell>
        <mxCell id="TMhiChGDHzvXsEVeWyzY-22" value="Vec&amp;lt;Stmt&amp;gt;" style="rounded=1;whiteSpace=wrap;html=1;" parent="1" vertex="1">
          <mxGeometry x="640" y="280" width="80" height="40" as="geometry" />
        </mxCell>
        <mxCell id="TMhiChGDHzvXsEVeWyzY-34" value="" style="endArrow=classic;html=1;rounded=0;entryX=0.5;entryY=0;entryDx=0;entryDy=0;exitX=0.5;exitY=1;exitDx=0;exitDy=0;" parent="1" source="TMhiChGDHzvXsEVeWyzY-9" target="TMhiChGDHzvXsEVeWyzY-10" edge="1">
          <mxGeometry relative="1" as="geometry">
            <mxPoint x="370" y="390" as="sourcePoint" />
            <mxPoint x="470" y="390" as="targetPoint" />
          </mxGeometry>
        </mxCell>
        <mxCell id="TMhiChGDHzvXsEVeWyzY-35" value="ident" style="edgeLabel;resizable=0;html=1;;align=center;verticalAlign=middle;" parent="TMhiChGDHzvXsEVeWyzY-34" connectable="0" vertex="1">
          <mxGeometry relative="1" as="geometry" />
        </mxCell>
        <mxCell id="TMhiChGDHzvXsEVeWyzY-37" value="" style="endArrow=classic;html=1;rounded=0;entryX=0.5;entryY=0;entryDx=0;entryDy=0;exitX=0.5;exitY=1;exitDx=0;exitDy=0;" parent="1" source="TMhiChGDHzvXsEVeWyzY-9" target="TMhiChGDHzvXsEVeWyzY-18" edge="1">
          <mxGeometry relative="1" as="geometry">
            <mxPoint x="440" y="240" as="sourcePoint" />
            <mxPoint x="540" y="240" as="targetPoint" />
          </mxGeometry>
        </mxCell>
        <mxCell id="TMhiChGDHzvXsEVeWyzY-38" value="output" style="edgeLabel;resizable=0;html=1;;align=center;verticalAlign=middle;" parent="TMhiChGDHzvXsEVeWyzY-37" connectable="0" vertex="1">
          <mxGeometry relative="1" as="geometry" />
        </mxCell>
        <mxCell id="TMhiChGDHzvXsEVeWyzY-41" value="" style="endArrow=classic;html=1;rounded=0;entryX=0.466;entryY=-0.037;entryDx=0;entryDy=0;entryPerimeter=0;exitX=0.5;exitY=1;exitDx=0;exitDy=0;" parent="1" source="TMhiChGDHzvXsEVeWyzY-9" target="TMhiChGDHzvXsEVeWyzY-14" edge="1">
          <mxGeometry relative="1" as="geometry">
            <mxPoint x="440" y="240" as="sourcePoint" />
            <mxPoint x="540" y="240" as="targetPoint" />
          </mxGeometry>
        </mxCell>
        <mxCell id="TMhiChGDHzvXsEVeWyzY-42" value="inputs" style="edgeLabel;resizable=0;html=1;;align=center;verticalAlign=middle;" parent="TMhiChGDHzvXsEVeWyzY-41" connectable="0" vertex="1">
          <mxGeometry relative="1" as="geometry" />
        </mxCell>
        <mxCell id="TMhiChGDHzvXsEVeWyzY-43" value="" style="endArrow=classic;html=1;rounded=0;entryX=0.5;entryY=0;entryDx=0;entryDy=0;exitX=0.5;exitY=1;exitDx=0;exitDy=0;" parent="1" source="TMhiChGDHzvXsEVeWyzY-9" target="TMhiChGDHzvXsEVeWyzY-22" edge="1">
          <mxGeometry relative="1" as="geometry">
            <mxPoint x="440" y="240" as="sourcePoint" />
            <mxPoint x="540" y="240" as="targetPoint" />
          </mxGeometry>
        </mxCell>
        <mxCell id="TMhiChGDHzvXsEVeWyzY-44" value="stmts" style="edgeLabel;resizable=0;html=1;;align=center;verticalAlign=middle;" parent="TMhiChGDHzvXsEVeWyzY-43" connectable="0" vertex="1">
          <mxGeometry relative="1" as="geometry" />
        </mxCell>
        <mxCell id="TMhiChGDHzvXsEVeWyzY-45" value="Path" style="rounded=1;whiteSpace=wrap;html=1;" parent="1" vertex="1">
          <mxGeometry x="760" y="360" width="80" height="40" as="geometry" />
        </mxCell>
        <mxCell id="TMhiChGDHzvXsEVeWyzY-46" value="Ident" style="rounded=1;whiteSpace=wrap;html=1;" parent="1" vertex="1">
          <mxGeometry x="760" y="440" width="80" height="40" as="geometry" />
        </mxCell>
        <mxCell id="TMhiChGDHzvXsEVeWyzY-47" value="" style="endArrow=classic;html=1;rounded=0;entryX=0.5;entryY=0;entryDx=0;entryDy=0;exitX=0.5;exitY=1;exitDx=0;exitDy=0;" parent="1" source="TMhiChGDHzvXsEVeWyzY-18" target="TMhiChGDHzvXsEVeWyzY-45" edge="1">
          <mxGeometry relative="1" as="geometry">
            <mxPoint x="610" y="250" as="sourcePoint" />
            <mxPoint x="810" y="290" as="targetPoint" />
          </mxGeometry>
        </mxCell>
        <mxCell id="TMhiChGDHzvXsEVeWyzY-48" value="path" style="edgeLabel;resizable=0;html=1;;align=center;verticalAlign=middle;" parent="TMhiChGDHzvXsEVeWyzY-47" connectable="0" vertex="1">
          <mxGeometry relative="1" as="geometry" />
        </mxCell>
        <mxCell id="TMhiChGDHzvXsEVeWyzY-50" value="" style="endArrow=classic;html=1;rounded=0;entryX=0.5;entryY=0;entryDx=0;entryDy=0;exitX=0.5;exitY=1;exitDx=0;exitDy=0;" parent="1" source="TMhiChGDHzvXsEVeWyzY-45" target="TMhiChGDHzvXsEVeWyzY-46" edge="1">
          <mxGeometry relative="1" as="geometry">
            <mxPoint x="810" y="330" as="sourcePoint" />
            <mxPoint x="810" y="370" as="targetPoint" />
          </mxGeometry>
        </mxCell>
        <mxCell id="TMhiChGDHzvXsEVeWyzY-51" value="ident" style="edgeLabel;resizable=0;html=1;;align=center;verticalAlign=middle;" parent="TMhiChGDHzvXsEVeWyzY-50" connectable="0" vertex="1">
          <mxGeometry relative="1" as="geometry" />
        </mxCell>
        <mxCell id="TMhiChGDHzvXsEVeWyzY-52" value="PatType" style="rounded=1;whiteSpace=wrap;html=1;" parent="1" vertex="1">
          <mxGeometry x="400" y="360" width="80" height="40" as="geometry" />
        </mxCell>
        <mxCell id="TMhiChGDHzvXsEVeWyzY-53" value="" style="endArrow=classic;html=1;rounded=0;entryX=0.5;entryY=0;entryDx=0;entryDy=0;exitX=0.5;exitY=1;exitDx=0;exitDy=0;" parent="1" source="TMhiChGDHzvXsEVeWyzY-14" target="TMhiChGDHzvXsEVeWyzY-52" edge="1">
          <mxGeometry relative="1" as="geometry">
            <mxPoint x="525" y="210" as="sourcePoint" />
            <mxPoint x="442" y="289" as="targetPoint" />
          </mxGeometry>
        </mxCell>
        <mxCell id="TMhiChGDHzvXsEVeWyzY-54" value="typed" style="edgeLabel;resizable=0;html=1;;align=center;verticalAlign=middle;" parent="TMhiChGDHzvXsEVeWyzY-53" connectable="0" vertex="1">
          <mxGeometry relative="1" as="geometry" />
        </mxCell>
        <mxCell id="TMhiChGDHzvXsEVeWyzY-55" value="Pat" style="rounded=1;whiteSpace=wrap;html=1;" parent="1" vertex="1">
          <mxGeometry x="340" y="440" width="80" height="40" as="geometry" />
        </mxCell>
        <mxCell id="TMhiChGDHzvXsEVeWyzY-56" value="Type" style="rounded=1;whiteSpace=wrap;html=1;" parent="1" vertex="1">
          <mxGeometry x="455" y="440" width="80" height="40" as="geometry" />
        </mxCell>
        <mxCell id="TMhiChGDHzvXsEVeWyzY-57" value="Ident" style="rounded=1;whiteSpace=wrap;html=1;" parent="1" vertex="1">
          <mxGeometry x="340" y="520" width="80" height="40" as="geometry" />
        </mxCell>
        <mxCell id="TMhiChGDHzvXsEVeWyzY-58" value="" style="endArrow=classic;html=1;rounded=0;entryX=0.5;entryY=0;entryDx=0;entryDy=0;exitX=0.5;exitY=1;exitDx=0;exitDy=0;" parent="1" source="TMhiChGDHzvXsEVeWyzY-55" target="TMhiChGDHzvXsEVeWyzY-57" edge="1">
          <mxGeometry relative="1" as="geometry">
            <mxPoint x="380" y="510" as="sourcePoint" />
            <mxPoint x="390" y="480" as="targetPoint" />
          </mxGeometry>
        </mxCell>
        <mxCell id="TMhiChGDHzvXsEVeWyzY-59" value="ident" style="edgeLabel;resizable=0;html=1;;align=center;verticalAlign=middle;" parent="TMhiChGDHzvXsEVeWyzY-58" connectable="0" vertex="1">
          <mxGeometry relative="1" as="geometry" />
        </mxCell>
        <mxCell id="TMhiChGDHzvXsEVeWyzY-60" value="Ident" style="rounded=1;whiteSpace=wrap;html=1;" parent="1" vertex="1">
          <mxGeometry x="455" y="520" width="80" height="40" as="geometry" />
        </mxCell>
        <mxCell id="TMhiChGDHzvXsEVeWyzY-61" value="" style="endArrow=classic;html=1;rounded=0;entryX=0.5;entryY=0;entryDx=0;entryDy=0;exitX=0.5;exitY=1;exitDx=0;exitDy=0;" parent="1" source="TMhiChGDHzvXsEVeWyzY-56" target="TMhiChGDHzvXsEVeWyzY-60" edge="1">
          <mxGeometry relative="1" as="geometry">
            <mxPoint x="495" y="500" as="sourcePoint" />
            <mxPoint x="505" y="470" as="targetPoint" />
          </mxGeometry>
        </mxCell>
        <mxCell id="TMhiChGDHzvXsEVeWyzY-62" value="ident" style="edgeLabel;resizable=0;html=1;;align=center;verticalAlign=middle;" parent="TMhiChGDHzvXsEVeWyzY-61" connectable="0" vertex="1">
          <mxGeometry relative="1" as="geometry" />
        </mxCell>
        <mxCell id="TMhiChGDHzvXsEVeWyzY-64" value="" style="endArrow=classic;html=1;rounded=0;entryX=0.5;entryY=0;entryDx=0;entryDy=0;exitX=0.5;exitY=1;exitDx=0;exitDy=0;" parent="1" source="TMhiChGDHzvXsEVeWyzY-52" target="TMhiChGDHzvXsEVeWyzY-55" edge="1">
          <mxGeometry relative="1" as="geometry">
            <mxPoint x="365" y="490" as="sourcePoint" />
            <mxPoint x="365" y="530" as="targetPoint" />
          </mxGeometry>
        </mxCell>
        <mxCell id="TMhiChGDHzvXsEVeWyzY-65" value="pat" style="edgeLabel;resizable=0;html=1;;align=center;verticalAlign=middle;" parent="TMhiChGDHzvXsEVeWyzY-64" connectable="0" vertex="1">
          <mxGeometry relative="1" as="geometry" />
        </mxCell>
        <mxCell id="TMhiChGDHzvXsEVeWyzY-66" value="" style="endArrow=classic;html=1;rounded=0;entryX=0.5;entryY=0;entryDx=0;entryDy=0;exitX=0.5;exitY=1;exitDx=0;exitDy=0;" parent="1" source="TMhiChGDHzvXsEVeWyzY-52" target="TMhiChGDHzvXsEVeWyzY-56" edge="1">
          <mxGeometry relative="1" as="geometry">
            <mxPoint x="435" y="400" as="sourcePoint" />
            <mxPoint x="365" y="450" as="targetPoint" />
          </mxGeometry>
        </mxCell>
        <mxCell id="TMhiChGDHzvXsEVeWyzY-67" value="ty" style="edgeLabel;resizable=0;html=1;;align=center;verticalAlign=middle;" parent="TMhiChGDHzvXsEVeWyzY-66" connectable="0" vertex="1">
          <mxGeometry relative="1" as="geometry" />
        </mxCell>
        <mxCell id="TMhiChGDHzvXsEVeWyzY-69" value="ExprReturn" style="rounded=1;whiteSpace=wrap;html=1;" parent="1" vertex="1">
          <mxGeometry x="640" y="360" width="80" height="40" as="geometry" />
        </mxCell>
        <mxCell id="TMhiChGDHzvXsEVeWyzY-70" value="" style="endArrow=classic;html=1;rounded=0;entryX=0.5;entryY=0;entryDx=0;entryDy=0;exitX=0.5;exitY=1;exitDx=0;exitDy=0;" parent="1" source="TMhiChGDHzvXsEVeWyzY-22" target="TMhiChGDHzvXsEVeWyzY-69" edge="1">
          <mxGeometry relative="1" as="geometry">
            <mxPoint x="490" y="330" as="sourcePoint" />
            <mxPoint x="490" y="370" as="targetPoint" />
          </mxGeometry>
        </mxCell>
        <mxCell id="TMhiChGDHzvXsEVeWyzY-71" value="expr" style="edgeLabel;resizable=0;html=1;;align=center;verticalAlign=middle;" parent="TMhiChGDHzvXsEVeWyzY-70" connectable="0" vertex="1">
          <mxGeometry relative="1" as="geometry" />
        </mxCell>
        <mxCell id="TMhiChGDHzvXsEVeWyzY-72" value="ExprReturn" style="rounded=1;whiteSpace=wrap;html=1;" parent="1" vertex="1">
          <mxGeometry x="640" y="440" width="80" height="40" as="geometry" />
        </mxCell>
        <mxCell id="TMhiChGDHzvXsEVeWyzY-73" value="" style="endArrow=classic;html=1;rounded=0;entryX=0.5;entryY=0;entryDx=0;entryDy=0;exitX=0.5;exitY=1;exitDx=0;exitDy=0;" parent="1" source="TMhiChGDHzvXsEVeWyzY-69" target="TMhiChGDHzvXsEVeWyzY-72" edge="1">
          <mxGeometry relative="1" as="geometry">
            <mxPoint x="690" y="330" as="sourcePoint" />
            <mxPoint x="690" y="370" as="targetPoint" />
          </mxGeometry>
        </mxCell>
        <mxCell id="TMhiChGDHzvXsEVeWyzY-74" value="binary" style="edgeLabel;resizable=0;html=1;;align=center;verticalAlign=middle;" parent="TMhiChGDHzvXsEVeWyzY-73" connectable="0" vertex="1">
          <mxGeometry relative="1" as="geometry" />
        </mxCell>
        <mxCell id="TMhiChGDHzvXsEVeWyzY-75" value="ExprPath" style="rounded=1;whiteSpace=wrap;html=1;" parent="1" vertex="1">
          <mxGeometry x="560" y="520" width="80" height="40" as="geometry" />
        </mxCell>
        <mxCell id="TMhiChGDHzvXsEVeWyzY-76" value="BinOp" style="rounded=1;whiteSpace=wrap;html=1;" parent="1" vertex="1">
          <mxGeometry x="660" y="520" width="40" height="40" as="geometry" />
        </mxCell>
        <mxCell id="TMhiChGDHzvXsEVeWyzY-77" value="ExprLit" style="rounded=1;whiteSpace=wrap;html=1;" parent="1" vertex="1">
          <mxGeometry x="720" y="520" width="80" height="40" as="geometry" />
        </mxCell>
        <mxCell id="TMhiChGDHzvXsEVeWyzY-80" value="Ident" style="rounded=1;whiteSpace=wrap;html=1;" parent="1" vertex="1">
          <mxGeometry x="560" y="600" width="80" height="40" as="geometry" />
        </mxCell>
        <mxCell id="TMhiChGDHzvXsEVeWyzY-81" value="" style="endArrow=classic;html=1;rounded=0;entryX=0.5;entryY=0;entryDx=0;entryDy=0;exitX=0.5;exitY=1;exitDx=0;exitDy=0;" parent="1" source="TMhiChGDHzvXsEVeWyzY-75" target="TMhiChGDHzvXsEVeWyzY-80" edge="1">
          <mxGeometry relative="1" as="geometry">
            <mxPoint x="600" y="560" as="sourcePoint" />
            <mxPoint x="610" y="530" as="targetPoint" />
          </mxGeometry>
        </mxCell>
        <mxCell id="TMhiChGDHzvXsEVeWyzY-82" value="ident" style="edgeLabel;resizable=0;html=1;;align=center;verticalAlign=middle;" parent="TMhiChGDHzvXsEVeWyzY-81" connectable="0" vertex="1">
          <mxGeometry relative="1" as="geometry" />
        </mxCell>
        <mxCell id="TMhiChGDHzvXsEVeWyzY-83" value="" style="endArrow=classic;html=1;rounded=0;entryX=0.5;entryY=0;entryDx=0;entryDy=0;exitX=0.5;exitY=1;exitDx=0;exitDy=0;" parent="1" source="TMhiChGDHzvXsEVeWyzY-72" target="TMhiChGDHzvXsEVeWyzY-75" edge="1">
          <mxGeometry relative="1" as="geometry">
            <mxPoint x="680" y="490" as="sourcePoint" />
            <mxPoint x="690" y="450" as="targetPoint" />
          </mxGeometry>
        </mxCell>
        <mxCell id="TMhiChGDHzvXsEVeWyzY-84" value="left" style="edgeLabel;resizable=0;html=1;;align=center;verticalAlign=middle;" parent="TMhiChGDHzvXsEVeWyzY-83" connectable="0" vertex="1">
          <mxGeometry relative="1" as="geometry" />
        </mxCell>
        <mxCell id="TMhiChGDHzvXsEVeWyzY-85" value="" style="endArrow=classic;html=1;rounded=0;entryX=0.5;entryY=0;entryDx=0;entryDy=0;exitX=0.5;exitY=1;exitDx=0;exitDy=0;" parent="1" source="TMhiChGDHzvXsEVeWyzY-72" target="TMhiChGDHzvXsEVeWyzY-76" edge="1">
          <mxGeometry relative="1" as="geometry">
            <mxPoint x="690" y="490" as="sourcePoint" />
            <mxPoint x="610" y="530" as="targetPoint" />
          </mxGeometry>
        </mxCell>
        <mxCell id="TMhiChGDHzvXsEVeWyzY-86" value="op" style="edgeLabel;resizable=0;html=1;;align=center;verticalAlign=middle;" parent="TMhiChGDHzvXsEVeWyzY-85" connectable="0" vertex="1">
          <mxGeometry relative="1" as="geometry" />
        </mxCell>
        <mxCell id="TMhiChGDHzvXsEVeWyzY-88" value="" style="endArrow=classic;html=1;rounded=0;entryX=0.5;entryY=0;entryDx=0;entryDy=0;exitX=0.5;exitY=1;exitDx=0;exitDy=0;" parent="1" source="TMhiChGDHzvXsEVeWyzY-72" target="TMhiChGDHzvXsEVeWyzY-77" edge="1">
          <mxGeometry relative="1" as="geometry">
            <mxPoint x="690" y="490" as="sourcePoint" />
            <mxPoint x="610" y="530" as="targetPoint" />
          </mxGeometry>
        </mxCell>
        <mxCell id="TMhiChGDHzvXsEVeWyzY-89" value="right" style="edgeLabel;resizable=0;html=1;;align=center;verticalAlign=middle;" parent="TMhiChGDHzvXsEVeWyzY-88" connectable="0" vertex="1">
          <mxGeometry relative="1" as="geometry" />
        </mxCell>
        <mxCell id="TMhiChGDHzvXsEVeWyzY-92" value="a" style="text;strokeColor=none;align=center;fillColor=none;html=1;verticalAlign=middle;whiteSpace=wrap;rounded=0;" parent="1" vertex="1">
          <mxGeometry x="350" y="560" width="60" height="30" as="geometry" />
        </mxCell>
        <mxCell id="TMhiChGDHzvXsEVeWyzY-93" value="i32" style="text;strokeColor=none;align=center;fillColor=none;html=1;verticalAlign=middle;whiteSpace=wrap;rounded=0;" parent="1" vertex="1">
          <mxGeometry x="465" y="560" width="60" height="30" as="geometry" />
        </mxCell>
        <mxCell id="TMhiChGDHzvXsEVeWyzY-94" value="plus_ten" style="text;strokeColor=none;align=center;fillColor=none;html=1;verticalAlign=middle;whiteSpace=wrap;rounded=0;" parent="1" vertex="1">
          <mxGeometry x="290" y="320" width="60" height="30" as="geometry" />
        </mxCell>
        <mxCell id="TMhiChGDHzvXsEVeWyzY-95" value="a" style="text;strokeColor=none;align=center;fillColor=none;html=1;verticalAlign=middle;whiteSpace=wrap;rounded=0;" parent="1" vertex="1">
          <mxGeometry x="570" y="640" width="60" height="30" as="geometry" />
        </mxCell>
        <mxCell id="TMhiChGDHzvXsEVeWyzY-96" value="10" style="text;strokeColor=none;align=center;fillColor=none;html=1;verticalAlign=middle;whiteSpace=wrap;rounded=0;" parent="1" vertex="1">
          <mxGeometry x="730" y="560" width="60" height="30" as="geometry" />
        </mxCell>
        <mxCell id="TMhiChGDHzvXsEVeWyzY-97" value="+" style="text;strokeColor=none;align=center;fillColor=none;html=1;verticalAlign=middle;whiteSpace=wrap;rounded=0;" parent="1" vertex="1">
          <mxGeometry x="650" y="560" width="60" height="30" as="geometry" />
        </mxCell>
        <mxCell id="TMhiChGDHzvXsEVeWyzY-98" value="i32" style="text;strokeColor=none;align=center;fillColor=none;html=1;verticalAlign=middle;whiteSpace=wrap;rounded=0;" parent="1" vertex="1">
          <mxGeometry x="770" y="480" width="60" height="30" as="geometry" />
        </mxCell>
        <mxCell id="OOKuiqzjAS7P1QZxqLEm-1" value="&lt;div style=&quot;text-align: justify; font-family: &amp;quot;JetBrains Mono NL&amp;quot;, &amp;quot;Fira Code&amp;quot;, Hack, Consolas, &amp;quot;Cascadia Code&amp;quot;, &amp;quot;Source Code Pro&amp;quot;, &amp;quot;Droid Sans Mono&amp;quot;, &amp;quot;monospace&amp;quot;, monospace; font-size: 15px; font-weight: 500; white-space: pre;&quot;&gt;&lt;span style=&quot;&quot;&gt;fn&lt;/span&gt;&lt;span style=&quot;&quot;&gt; &lt;/span&gt;&lt;span style=&quot;&quot;&gt;plus_ten&lt;/span&gt;&lt;span style=&quot;&quot;&gt;(a&lt;/span&gt;&lt;span style=&quot;&quot;&gt;:&lt;/span&gt;&lt;span style=&quot;&quot;&gt; &lt;/span&gt;&lt;span style=&quot;&quot;&gt;i32&lt;/span&gt;&lt;span style=&quot;&quot;&gt;) &lt;/span&gt;&lt;span style=&quot;&quot;&gt;-&amp;gt;&lt;/span&gt;&lt;span style=&quot;&quot;&gt; &lt;/span&gt;&lt;span style=&quot;&quot;&gt;i32&lt;/span&gt;&lt;span style=&quot;&quot;&gt; {&lt;/span&gt;&lt;/div&gt;&lt;div style=&quot;text-align: justify; font-family: &amp;quot;JetBrains Mono NL&amp;quot;, &amp;quot;Fira Code&amp;quot;, Hack, Consolas, &amp;quot;Cascadia Code&amp;quot;, &amp;quot;Source Code Pro&amp;quot;, &amp;quot;Droid Sans Mono&amp;quot;, &amp;quot;monospace&amp;quot;, monospace; font-size: 15px; font-weight: 500; white-space: pre;&quot;&gt;&lt;span style=&quot;&quot;&gt;    &lt;/span&gt;&lt;span style=&quot;&quot;&gt;return&lt;/span&gt;&lt;span style=&quot;&quot;&gt; a &lt;/span&gt;&lt;span style=&quot;&quot;&gt;+&lt;/span&gt;&lt;span style=&quot;&quot;&gt; &lt;/span&gt;&lt;span style=&quot;&quot;&gt;10&lt;/span&gt;&lt;span style=&quot;&quot;&gt;;&lt;/span&gt;&lt;/div&gt;&lt;div style=&quot;text-align: justify; font-family: &amp;quot;JetBrains Mono NL&amp;quot;, &amp;quot;Fira Code&amp;quot;, Hack, Consolas, &amp;quot;Cascadia Code&amp;quot;, &amp;quot;Source Code Pro&amp;quot;, &amp;quot;Droid Sans Mono&amp;quot;, &amp;quot;monospace&amp;quot;, monospace; font-size: 15px; font-weight: 500; white-space: pre;&quot;&gt;&lt;span style=&quot;&quot;&gt;}&lt;/span&gt;&lt;/div&gt;" style="rounded=0;whiteSpace=wrap;html=1;fontColor=default;align=center;labelPosition=center;verticalLabelPosition=middle;verticalAlign=middle;" vertex="1" parent="1">
          <mxGeometry x="40" y="160" width="280" height="80" as="geometry" />
        </mxCell>
      </root>
    </mxGraphModel>
  </diagram>
</mxfile>
